<svg width="244" height="54" viewBox="0 0 244 54" fill="none" xmlns="http://www.w3.org/2000/svg">
<rect width="244" height="54" fill="#68B738"/>
<path d="M27.7327 36V19.8H36.6527V36H34.3927V21.42H29.9927V36H27.7327ZM43.318 36.18C42.2246 36.18 41.3513 35.9667 40.698 35.54C40.0446 35.1133 39.578 34.5067 39.298 33.72C39.018 32.92 38.878 31.9867 38.878 30.92V24.78C38.878 23.7133 39.018 22.8 39.298 22.04C39.5913 21.2667 40.058 20.68 40.698 20.28C41.3513 19.8667 42.2246 19.66 43.318 19.66C44.4113 19.66 45.278 19.8667 45.918 20.28C46.558 20.6933 47.018 21.28 47.298 22.04C47.5913 22.8 47.738 23.7133 47.738 24.78V30.94C47.738 31.9933 47.5913 32.9133 47.298 33.7C47.018 34.4867 46.558 35.1 45.918 35.54C45.278 35.9667 44.4113 36.18 43.318 36.18ZM43.318 34.4C43.918 34.4 44.3713 34.28 44.678 34.04C44.9846 33.7867 45.1913 33.44 45.298 33C45.4046 32.5467 45.458 32.02 45.458 31.42V24.32C45.458 23.72 45.4046 23.2067 45.298 22.78C45.1913 22.34 44.9846 22.0067 44.678 21.78C44.3713 21.54 43.918 21.42 43.318 21.42C42.718 21.42 42.258 21.54 41.938 21.78C41.6313 22.0067 41.4246 22.34 41.318 22.78C41.2113 23.2067 41.158 23.72 41.158 24.32V31.42C41.158 32.02 41.2113 32.5467 41.318 33C41.4246 33.44 41.6313 33.7867 41.938 34.04C42.258 34.28 42.718 34.4 43.318 34.4ZM48.9192 38.94V34.38H49.6592C49.8859 34.1933 50.1059 33.9667 50.3192 33.7C50.5459 33.4333 50.7526 33.0867 50.9392 32.66C51.1392 32.22 51.3192 31.66 51.4792 30.98C51.6392 30.2867 51.7792 29.42 51.8992 28.38C52.0326 27.34 52.1326 26.08 52.1992 24.6L52.4592 19.8H59.2392V34.38H60.7992V38.94H59.0592L58.8792 36H50.8392L50.6592 38.94H48.9192ZM51.7592 34.38H56.9992V21.48H54.3792L54.2192 25.14C54.1659 26.58 54.0792 27.7933 53.9592 28.78C53.8526 29.7533 53.7192 30.56 53.5592 31.2C53.4126 31.8267 53.2392 32.34 53.0392 32.74C52.8526 33.1267 52.6459 33.44 52.4192 33.68C52.2059 33.92 51.9859 34.1533 51.7592 34.38ZM66.6383 36.18C65.5449 36.18 64.6716 35.9667 64.0183 35.54C63.3649 35.1133 62.8983 34.5067 62.6183 33.72C62.3383 32.92 62.1983 31.9867 62.1983 30.92V24.78C62.1983 23.7133 62.3383 22.8 62.6183 22.04C62.9116 21.2667 63.3783 20.68 64.0183 20.28C64.6716 19.8667 65.5449 19.66 66.6383 19.66C67.7316 19.66 68.5983 19.8667 69.2383 20.28C69.8783 20.6933 70.3383 21.28 70.6183 22.04C70.9116 22.8 71.0583 23.7133 71.0583 24.78V30.94C71.0583 31.9933 70.9116 32.9133 70.6183 33.7C70.3383 34.4867 69.8783 35.1 69.2383 35.54C68.5983 35.9667 67.7316 36.18 66.6383 36.18ZM66.6383 34.4C67.2383 34.4 67.6916 34.28 67.9983 34.04C68.3049 33.7867 68.5116 33.44 68.6183 33C68.7249 32.5467 68.7783 32.02 68.7783 31.42V24.32C68.7783 23.72 68.7249 23.2067 68.6183 22.78C68.5116 22.34 68.3049 22.0067 67.9983 21.78C67.6916 21.54 67.2383 21.42 66.6383 21.42C66.0383 21.42 65.5783 21.54 65.2583 21.78C64.9516 22.0067 64.7449 22.34 64.6383 22.78C64.5316 23.2067 64.4783 23.72 64.4783 24.32V31.42C64.4783 32.02 64.5316 32.5467 64.6383 33C64.7449 33.44 64.9516 33.7867 65.2583 34.04C65.5783 34.28 66.0383 34.4 66.6383 34.4ZM73.2795 36V19.8H80.2395V21.44H75.5395V26.54H76.0395C77.2129 26.54 78.1795 26.68 78.9395 26.96C79.7129 27.2267 80.2862 27.7 80.6595 28.38C81.0462 29.06 81.2395 30.02 81.2395 31.26C81.2395 32.1 81.1395 32.82 80.9395 33.42C80.7395 34.0067 80.4262 34.4933 79.9995 34.88C79.5862 35.2667 79.0595 35.5533 78.4195 35.74C77.7929 35.9133 77.0395 36 76.1595 36H73.2795ZM75.5395 34.38H76.1795C76.8462 34.38 77.3929 34.3067 77.8195 34.16C78.2595 34 78.5795 33.6933 78.7795 33.24C78.9929 32.7867 79.0995 32.12 79.0995 31.24C79.0995 30.1333 78.8862 29.3467 78.4595 28.88C78.0462 28.4133 77.2662 28.18 76.1195 28.18H75.5395V34.38ZM83.1623 36V19.8H87.1823C88.1557 19.8 88.929 19.98 89.5023 20.34C90.089 20.6867 90.5157 21.1933 90.7823 21.86C91.049 22.5267 91.1823 23.3333 91.1823 24.28C91.1823 25.1333 91.029 25.8733 90.7223 26.5C90.429 27.1267 89.989 27.6133 89.4023 27.96C88.8157 28.2933 88.0823 28.46 87.2023 28.46H85.4223V36H83.1623ZM85.4223 26.84H86.4623C87.1157 26.84 87.629 26.7667 88.0023 26.62C88.3757 26.4733 88.6423 26.22 88.8023 25.86C88.9623 25.4867 89.0423 24.9667 89.0423 24.3C89.0423 23.5267 88.9823 22.9333 88.8623 22.52C88.7557 22.1067 88.5223 21.82 88.1623 21.66C87.8023 21.5 87.2423 21.42 86.4823 21.42H85.4223V26.84ZM91.6573 36L95.0973 19.8H97.2773L100.737 36H98.5973L97.8573 31.92H94.5573L93.7773 36H91.6573ZM94.8573 30.3H97.5573L96.1973 23L94.8573 30.3ZM103.634 36V21.48H100.894V19.8H108.554V21.48H105.894V36H103.634ZM110.115 36V19.8H112.375V26.54H113.015C114.189 26.54 115.155 26.68 115.915 26.96C116.675 27.2267 117.242 27.7 117.615 28.38C118.002 29.06 118.195 30.02 118.195 31.26C118.195 32.1 118.095 32.82 117.895 33.42C117.695 34.0067 117.382 34.4933 116.955 34.88C116.542 35.2667 116.015 35.5533 115.375 35.74C114.749 35.9133 113.995 36 113.115 36H110.115ZM112.375 34.38H113.115C113.795 34.38 114.349 34.3067 114.775 34.16C115.215 34 115.542 33.6933 115.755 33.24C115.969 32.7867 116.075 32.12 116.075 31.24C116.075 30.1333 115.862 29.3467 115.435 28.88C115.009 28.4133 114.222 28.18 113.075 28.18H112.375V34.38ZM124.569 36V19.8H133.489V36H131.229V21.42H126.829V36H124.569ZM136.014 36V19.8H140.034C141.007 19.8 141.781 19.98 142.354 20.34C142.941 20.6867 143.367 21.1933 143.634 21.86C143.901 22.5267 144.034 23.3333 144.034 24.28C144.034 25.1333 143.881 25.8733 143.574 26.5C143.281 27.1267 142.841 27.6133 142.254 27.96C141.667 28.2933 140.934 28.46 140.054 28.46H138.274V36H136.014ZM138.274 26.84H139.314C139.967 26.84 140.481 26.7667 140.854 26.62C141.227 26.4733 141.494 26.22 141.654 25.86C141.814 25.4867 141.894 24.9667 141.894 24.3C141.894 23.5267 141.834 22.9333 141.714 22.52C141.607 22.1067 141.374 21.82 141.014 21.66C140.654 21.5 140.094 21.42 139.334 21.42H138.274V26.84ZM149.763 36.18C148.67 36.18 147.797 35.9667 147.143 35.54C146.49 35.1133 146.023 34.5067 145.743 33.72C145.463 32.92 145.323 31.9867 145.323 30.92V24.78C145.323 23.7133 145.463 22.8 145.743 22.04C146.037 21.2667 146.503 20.68 147.143 20.28C147.797 19.8667 148.67 19.66 149.763 19.66C150.857 19.66 151.723 19.8667 152.363 20.28C153.003 20.6933 153.463 21.28 153.743 22.04C154.037 22.8 154.183 23.7133 154.183 24.78V30.94C154.183 31.9933 154.037 32.9133 153.743 33.7C153.463 34.4867 153.003 35.1 152.363 35.54C151.723 35.9667 150.857 36.18 149.763 36.18ZM149.763 34.4C150.363 34.4 150.817 34.28 151.123 34.04C151.43 33.7867 151.637 33.44 151.743 33C151.85 32.5467 151.903 32.02 151.903 31.42V24.32C151.903 23.72 151.85 23.2067 151.743 22.78C151.637 22.34 151.43 22.0067 151.123 21.78C150.817 21.54 150.363 21.42 149.763 21.42C149.163 21.42 148.703 21.54 148.383 21.78C148.077 22.0067 147.87 22.34 147.763 22.78C147.657 23.2067 147.603 23.72 147.603 24.32V31.42C147.603 32.02 147.657 32.5467 147.763 33C147.87 33.44 148.077 33.7867 148.383 34.04C148.703 34.28 149.163 34.4 149.763 34.4ZM156.405 36V19.8H162.565V21.48H158.665V36H156.405ZM164.119 36V19.8H168.139C169.113 19.8 169.886 19.98 170.459 20.34C171.046 20.6867 171.473 21.1933 171.739 21.86C172.006 22.5267 172.139 23.3333 172.139 24.28C172.139 25.1333 171.986 25.8733 171.679 26.5C171.386 27.1267 170.946 27.6133 170.359 27.96C169.773 28.2933 169.039 28.46 168.159 28.46H166.379V36H164.119ZM166.379 26.84H167.419C168.073 26.84 168.586 26.7667 168.959 26.62C169.333 26.4733 169.599 26.22 169.759 25.86C169.919 25.4867 169.999 24.9667 169.999 24.3C169.999 23.5267 169.939 22.9333 169.819 22.52C169.713 22.1067 169.479 21.82 169.119 21.66C168.759 21.5 168.199 21.42 167.439 21.42H166.379V26.84ZM172.614 36L176.054 19.8H178.234L181.694 36H179.554L178.814 31.92H175.514L174.734 36H172.614ZM175.814 30.3H178.514L177.154 23L175.814 30.3ZM183.298 36L183.598 19.8H185.818L188.678 32.94L191.558 19.8H193.758L194.058 36H192.238L192.058 24.24L189.318 36H188.038L185.318 24.24L185.138 36H183.298ZM196.501 36L196.801 19.8H199.021L201.881 32.94L204.761 19.8H206.961L207.261 36H205.441L205.261 24.24L202.521 36H201.241L198.521 24.24L198.341 36H196.501ZM209.544 38.46V36.72C210.238 36.7867 210.771 36.7867 211.144 36.72C211.531 36.6533 211.798 36.5133 211.944 36.3C212.104 36.1 212.184 35.8267 212.184 35.48C212.184 35.12 212.144 34.6933 212.064 34.2L208.864 19.8H211.004L212.364 26.7L213.184 31.84L213.904 26.74L215.124 19.8H217.284L214.384 34.24C214.251 34.8933 214.138 35.4667 214.044 35.96C213.964 36.4533 213.844 36.8733 213.684 37.22C213.538 37.5667 213.311 37.84 213.004 38.04C212.698 38.24 212.264 38.3733 211.704 38.44C211.158 38.5067 210.438 38.5133 209.544 38.46Z" fill="white"/>
</svg>
